<svg id="svg" version="1.1" xmlns="http://www.w3.org/2000/svg" xmlns:xlink="http://www.w3.org/1999/xlink" width="400" height="400.8695652173913" viewBox="0, 0, 400,400.8695652173913"><g id="svgg"><path id="path0" d="M194.200 224.776 C 185.619 227.020,177.317 232.839,174.011 238.926 C 170.710 245.006,169.966 246.981,169.222 251.646 C 167.659 261.450,171.351 272.787,178.256 279.382 C 181.184 282.179,182.501 283.201,185.000 284.613 C 190.015 287.448,192.378 288.206,197.968 288.774 C 201.504 289.133,208.798 288.643,210.073 287.961 C 210.444 287.762,211.092 287.600,211.514 287.600 C 212.266 287.600,214.006 286.764,218.400 284.292 C 220.421 283.156,225.616 279.018,225.937 278.289 C 226.012 278.118,226.743 277.128,227.561 276.089 C 228.937 274.340,229.493 273.422,230.947 270.500 C 235.217 261.918,235.142 250.932,230.753 242.305 C 230.559 241.923,230.400 241.427,230.400 241.202 C 230.400 239.510,223.097 231.670,219.010 228.976 C 212.524 224.698,201.579 222.846,194.200 224.776 M25.414 243.977 C 25.205 244.316,26.217 249.154,26.800 250.600 C 26.977 251.040,27.962 254.100,28.989 257.400 C 30.774 263.136,31.281 264.581,32.028 266.065 C 32.212 266.431,32.920 268.231,33.602 270.065 C 34.283 271.899,35.630 275.020,36.596 277.000 C 37.561 278.980,38.717 281.410,39.165 282.400 C 40.503 285.357,44.181 291.899,48.195 298.462 C 55.963 311.161,70.359 327.889,82.222 338.000 C 83.900 339.430,85.931 341.178,86.736 341.883 C 88.039 343.026,93.063 346.803,98.595 350.800 C 99.661 351.570,100.998 352.449,101.566 352.754 C 102.135 353.059,103.860 354.138,105.400 355.152 C 106.940 356.166,109.190 357.507,110.400 358.133 C 111.610 358.758,112.870 359.499,113.200 359.779 C 113.530 360.059,115.420 361.052,117.400 361.986 C 119.380 362.921,121.270 363.908,121.600 364.181 C 121.930 364.454,124.270 365.536,126.800 366.585 C 129.330 367.634,132.120 368.821,133.000 369.224 C 133.880 369.626,136.400 370.581,138.600 371.345 C 140.800 372.110,143.590 373.102,144.800 373.550 C 146.733 374.266,156.931 377.042,161.400 378.069 C 170.101 380.068,185.589 381.963,195.600 382.253 C 205.198 382.530,224.874 380.436,235.000 378.059 C 240.992 376.652,250.023 374.144,253.400 372.948 C 255.600 372.169,258.480 371.187,259.800 370.764 C 262.039 370.048,263.294 369.556,264.828 368.795 C 265.174 368.623,266.884 367.903,268.628 367.195 C 271.989 365.831,278.741 362.536,279.380 361.949 C 279.589 361.757,280.011 361.600,280.318 361.600 C 280.625 361.600,282.493 360.610,284.470 359.400 C 286.447 358.190,288.249 357.200,288.475 357.200 C 288.700 357.200,289.567 356.660,290.401 356.000 C 291.234 355.339,292.910 354.214,294.126 353.500 C 297.450 351.544,303.135 347.614,305.103 345.910 C 306.063 345.080,306.989 344.400,307.161 344.400 C 307.332 344.400,308.186 343.725,309.057 342.900 C 309.929 342.075,311.983 340.324,313.621 339.009 C 317.158 336.170,329.592 323.717,333.000 319.602 C 334.320 318.008,336.133 315.871,337.029 314.852 C 337.925 313.833,339.042 312.370,339.511 311.600 C 339.980 310.830,340.783 309.750,341.296 309.200 C 342.208 308.223,346.240 302.415,347.768 299.876 C 348.191 299.174,349.075 297.790,349.734 296.800 C 352.506 292.630,359.265 280.030,361.320 275.200 C 361.648 274.430,362.559 272.412,363.346 270.716 C 364.133 269.020,364.892 267.173,365.033 266.612 C 365.173 266.051,365.449 265.494,365.644 265.373 C 365.840 265.252,366.000 264.868,366.000 264.520 C 366.000 264.171,366.810 261.839,367.800 259.336 C 368.790 256.833,369.600 254.439,369.600 254.016 C 369.600 253.593,369.780 253.136,370.000 253.000 C 370.220 252.864,370.403 252.358,370.406 251.876 C 370.409 251.394,370.859 249.560,371.406 247.800 C 371.953 246.040,372.400 244.462,372.400 244.292 C 372.400 243.788,370.331 244.462,368.403 245.595 C 367.411 246.177,365.520 247.154,364.200 247.765 C 362.880 248.377,360.434 249.558,358.764 250.391 C 357.095 251.224,355.295 252.041,354.764 252.207 C 354.234 252.374,352.630 253.047,351.200 253.703 C 346.909 255.673,342.253 257.600,341.783 257.600 C 341.540 257.600,340.227 258.140,338.865 258.800 C 337.502 259.460,336.208 260.000,335.988 260.000 C 335.769 260.000,335.277 260.179,334.895 260.398 C 334.513 260.616,332.493 261.350,330.406 262.027 C 328.319 262.704,326.429 263.399,326.206 263.571 C 325.860 263.837,321.028 265.413,316.000 266.899 C 315.230 267.127,313.790 267.618,312.800 267.991 C 311.047 268.651,310.404 268.842,305.400 270.191 C 301.583 271.220,300.459 271.531,295.955 272.802 C 293.621 273.461,291.384 274.000,290.984 274.000 C 290.584 274.000,289.704 274.163,289.028 274.363 C 288.353 274.562,286.450 275.021,284.800 275.383 C 283.150 275.745,280.720 276.287,279.400 276.588 C 275.553 277.464,271.228 278.293,268.000 278.772 C 266.350 279.017,263.470 279.477,261.600 279.794 C 257.621 280.468,250.635 281.505,247.848 281.834 C 245.932 282.060,243.600 283.806,243.600 285.013 C 243.600 285.400,242.729 286.511,239.200 290.632 C 233.292 297.529,222.898 303.706,213.800 305.728 C 212.260 306.070,210.010 306.574,208.800 306.848 C 192.672 310.502,169.738 300.548,159.783 285.574 C 158.438 283.551,157.703 282.801,157.069 282.805 C 156.591 282.808,154.040 282.534,151.400 282.196 C 146.872 281.617,143.577 281.120,135.600 279.811 C 133.730 279.504,130.850 279.052,129.200 278.806 C 125.478 278.251,121.222 277.407,115.000 275.992 C 112.360 275.391,109.120 274.684,107.800 274.420 C 104.738 273.808,103.421 273.472,99.000 272.177 C 97.020 271.597,94.410 270.887,93.200 270.599 C 89.864 269.805,86.765 268.925,84.784 268.209 C 82.616 267.426,80.274 266.676,76.703 265.623 C 74.418 264.949,71.910 264.049,67.800 262.427 C 67.360 262.253,66.280 261.883,65.400 261.605 C 62.330 260.634,56.599 258.286,56.467 257.944 C 56.393 257.755,56.013 257.600,55.622 257.600 C 54.741 257.600,49.659 255.525,47.271 254.190 C 46.297 253.646,45.284 253.200,45.021 253.200 C 44.758 253.200,42.576 252.236,40.172 251.057 C 37.767 249.878,34.630 248.342,33.200 247.643 C 31.770 246.943,29.479 245.758,28.109 245.008 C 26.740 244.259,25.527 243.795,25.414 243.977 " stroke="none" fill="#fafafa" fill-rule="evenodd"></path><path id="path1" d="M182.235 0.700 C 182.071 0.865,179.926 1.119,177.468 1.265 C 171.542 1.616,167.226 2.214,166.682 2.758 C 166.439 3.001,165.044 3.200,163.582 3.200 C 161.432 3.200,160.786 3.353,160.200 4.000 C 159.639 4.620,158.968 4.800,157.218 4.800 C 155.976 4.800,154.789 4.963,154.580 5.161 C 154.371 5.360,153.390 5.618,152.400 5.735 C 149.394 6.091,147.854 6.489,147.285 7.058 C 146.980 7.363,145.906 7.600,144.833 7.600 C 143.432 7.600,142.731 7.813,142.200 8.400 C 141.751 8.896,140.968 9.200,140.138 9.200 C 139.402 9.200,138.800 9.380,138.800 9.600 C 138.800 9.820,138.181 10.000,137.424 10.000 C 136.667 10.000,135.936 10.180,135.800 10.400 C 135.664 10.620,135.045 10.800,134.425 10.800 C 132.913 10.800,130.338 11.910,129.684 12.844 C 129.373 13.288,128.679 13.600,128.001 13.600 C 127.366 13.600,126.736 13.780,126.600 14.000 C 126.464 14.220,125.823 14.400,125.176 14.400 C 124.529 14.400,124.000 14.580,124.000 14.800 C 124.000 15.020,123.471 15.200,122.824 15.200 C 122.177 15.200,121.550 15.357,121.432 15.548 C 121.314 15.740,120.673 16.005,120.008 16.138 C 119.141 16.312,118.800 16.609,118.800 17.190 C 118.800 17.787,118.537 18.000,117.800 18.000 C 117.250 18.000,116.800 18.180,116.800 18.400 C 116.800 18.620,116.181 18.800,115.424 18.800 C 114.667 18.800,113.936 18.980,113.800 19.200 C 113.664 19.420,113.203 19.600,112.776 19.600 C 112.349 19.600,112.000 19.780,112.000 20.000 C 112.000 20.220,111.649 20.400,111.220 20.400 C 110.791 20.400,110.296 20.647,110.120 20.949 C 109.767 21.555,106.555 23.200,105.725 23.200 C 105.436 23.200,105.200 23.380,105.200 23.600 C 105.200 23.820,104.930 24.000,104.600 24.000 C 104.270 24.000,104.000 24.180,104.000 24.400 C 104.000 24.620,103.472 24.800,102.827 24.800 C 102.028 24.800,101.577 25.041,101.414 25.557 C 101.282 25.973,100.864 26.418,100.487 26.545 C 100.109 26.673,99.530 26.950,99.200 27.163 C 98.870 27.375,98.015 27.784,97.300 28.072 C 96.585 28.360,96.000 28.709,96.000 28.848 C 96.000 28.986,95.460 29.208,94.800 29.340 C 94.140 29.472,93.600 29.821,93.600 30.116 C 93.600 30.411,92.970 30.952,92.200 31.319 C 91.430 31.687,90.800 32.170,90.800 32.394 C 90.800 32.617,90.440 32.800,90.000 32.800 C 89.560 32.800,89.200 32.980,89.200 33.200 C 89.200 33.420,88.840 33.600,88.400 33.600 C 87.867 33.600,87.600 33.867,87.600 34.400 C 87.600 34.844,87.333 35.200,87.000 35.200 C 86.670 35.200,86.400 35.380,86.400 35.600 C 86.400 35.820,85.995 36.006,85.500 36.013 C 84.468 36.027,83.200 36.872,83.200 37.544 C 83.200 37.795,82.958 38.000,82.662 38.000 C 82.366 38.000,81.798 38.360,81.400 38.800 C 81.002 39.240,80.516 39.600,80.320 39.600 C 80.124 39.600,79.534 40.029,79.009 40.554 C 78.484 41.079,77.503 41.753,76.828 42.052 C 76.152 42.351,75.600 42.704,75.600 42.836 C 75.600 43.333,74.158 44.703,73.000 45.307 C 71.676 45.997,70.510 47.042,69.612 48.346 C 69.288 48.816,68.792 49.200,68.508 49.200 C 67.713 49.200,65.722 51.139,65.185 52.436 C 64.895 53.137,64.404 53.600,63.951 53.600 C 63.538 53.600,63.200 53.780,63.200 54.000 C 63.200 54.220,62.943 54.400,62.629 54.400 C 62.097 54.400,61.460 55.070,60.012 57.154 C 59.688 57.619,59.225 58.000,58.981 58.000 C 58.436 58.000,57.008 59.549,56.669 60.508 C 56.532 60.897,55.785 61.590,55.010 62.047 C 54.234 62.505,53.600 63.131,53.600 63.440 C 53.600 63.748,53.420 64.000,53.200 64.000 C 52.980 64.000,52.800 64.360,52.800 64.800 C 52.800 65.244,52.533 65.600,52.200 65.600 C 51.870 65.600,51.600 65.780,51.600 66.000 C 51.600 66.220,51.394 66.400,51.143 66.400 C 50.574 66.400,48.400 68.639,48.400 69.225 C 48.400 69.770,47.642 70.535,46.492 71.151 C 46.001 71.413,45.600 71.892,45.600 72.214 C 45.600 72.536,45.420 72.800,45.200 72.800 C 44.980 72.800,44.800 73.120,44.800 73.512 C 44.800 73.903,44.440 74.483,44.000 74.800 C 43.560 75.117,43.200 75.576,43.200 75.821 C 43.200 76.065,42.750 76.506,42.200 76.800 C 41.650 77.094,41.200 77.576,41.200 77.871 C 41.200 78.166,40.660 78.972,40.000 79.663 C 39.241 80.457,38.800 81.338,38.800 82.059 C 38.800 82.923,38.611 83.200,38.020 83.200 C 37.201 83.200,35.209 85.476,35.187 86.438 C 35.171 87.165,34.232 88.400,33.696 88.400 C 33.328 88.400,32.353 89.974,31.034 92.697 C 30.795 93.190,30.465 93.595,30.300 93.597 C 30.135 93.599,30.000 94.067,30.000 94.637 C 30.000 95.338,29.741 95.743,29.200 95.884 C 28.760 95.999,28.400 96.342,28.400 96.647 C 28.400 96.951,28.220 97.200,28.000 97.200 C 27.780 97.200,27.600 97.483,27.600 97.829 C 27.600 98.174,27.330 98.727,27.000 99.057 C 26.670 99.387,26.400 100.004,26.400 100.429 C 26.400 100.853,26.220 101.200,26.000 101.200 C 25.780 101.200,25.600 101.468,25.600 101.797 C 25.600 102.125,25.240 102.618,24.800 102.893 C 24.360 103.168,24.000 103.807,24.000 104.313 C 24.000 104.819,23.628 105.631,23.173 106.117 C 22.717 106.603,22.245 107.495,22.123 108.100 C 22.000 108.705,21.743 109.200,21.550 109.200 C 21.358 109.200,21.200 109.554,21.200 109.986 C 21.200 110.418,20.840 110.965,20.400 111.200 C 19.932 111.450,19.600 112.038,19.600 112.614 C 19.600 113.156,19.420 113.600,19.200 113.600 C 18.980 113.600,18.800 113.949,18.800 114.376 C 18.800 114.803,18.620 115.264,18.400 115.400 C 18.180 115.536,18.000 116.177,18.000 116.824 C 18.000 117.471,17.823 118.000,17.608 118.000 C 17.392 118.000,17.093 118.495,16.943 119.100 C 16.793 119.705,16.340 120.435,15.935 120.723 C 15.531 121.010,15.200 121.685,15.200 122.223 C 15.200 122.760,15.020 123.200,14.800 123.200 C 14.580 123.200,14.400 123.639,14.400 124.176 C 14.400 124.713,14.220 125.264,14.000 125.400 C 13.780 125.536,13.600 126.256,13.600 127.000 C 13.600 127.744,13.420 128.464,13.200 128.600 C 12.980 128.736,12.800 129.438,12.800 130.159 C 12.800 131.171,12.571 131.576,11.800 131.927 C 11.009 132.288,10.800 132.677,10.800 133.791 C 10.800 134.566,10.620 135.200,10.400 135.200 C 10.180 135.200,10.000 135.830,10.000 136.600 C 10.000 137.370,9.820 138.000,9.600 138.000 C 9.380 138.000,9.200 138.709,9.200 139.576 C 9.200 140.443,9.020 141.264,8.800 141.400 C 8.580 141.536,8.400 142.357,8.400 143.224 C 8.400 144.370,8.233 144.800,7.790 144.800 C 7.087 144.800,6.400 146.355,6.400 147.946 C 6.400 148.548,6.237 149.211,6.037 149.420 C 5.837 149.629,5.564 150.790,5.430 152.000 C 4.866 157.093,4.705 158.000,4.361 158.000 C 4.163 158.000,4.000 159.088,4.000 160.417 C 4.000 162.281,3.817 163.030,3.200 163.692 C 2.760 164.164,2.387 164.922,2.372 165.375 C 2.356 165.829,2.163 167.640,1.943 169.400 C 1.722 171.160,1.453 174.220,1.344 176.200 C 1.235 178.180,0.978 179.971,0.773 180.180 C 0.274 180.688,0.275 219.313,0.773 219.820 C 0.979 220.029,1.228 221.910,1.326 224.000 C 1.658 231.009,2.409 236.123,3.240 237.026 C 3.783 237.616,4.000 238.444,4.000 239.926 C 4.000 241.067,4.180 242.000,4.400 242.000 C 4.620 242.000,4.800 242.990,4.800 244.200 C 4.800 245.410,4.980 246.400,5.200 246.400 C 5.420 246.400,5.600 247.379,5.600 248.576 C 5.600 249.773,5.780 250.864,6.000 251.000 C 6.220 251.136,6.400 251.875,6.400 252.642 C 6.400 253.596,6.716 254.352,7.400 255.036 C 8.074 255.710,8.400 256.479,8.400 257.395 C 8.400 258.142,8.580 258.864,8.800 259.000 C 9.020 259.136,9.200 259.946,9.200 260.800 C 9.200 261.654,9.380 262.464,9.600 262.600 C 9.820 262.736,10.000 263.366,10.000 264.000 C 10.000 264.634,10.180 265.264,10.400 265.400 C 10.620 265.536,10.803 266.132,10.806 266.724 C 10.813 267.998,11.148 268.565,12.100 268.917 C 12.485 269.059,12.800 269.541,12.800 269.987 C 12.800 270.434,12.980 270.800,13.200 270.800 C 13.420 270.800,13.600 271.522,13.600 272.405 C 13.600 273.288,13.762 274.323,13.961 274.705 C 14.160 275.087,14.555 276.186,14.840 277.146 C 15.125 278.106,15.683 279.095,16.079 279.342 C 16.476 279.590,16.800 280.165,16.800 280.620 C 16.800 281.075,17.064 281.796,17.387 282.224 C 17.710 282.651,17.980 283.495,17.987 284.100 C 17.994 284.705,18.180 285.200,18.400 285.200 C 18.620 285.200,18.800 285.442,18.800 285.739 C 18.800 286.502,19.907 288.624,20.608 289.207 C 20.934 289.477,21.200 289.974,21.200 290.311 C 21.200 290.649,21.650 291.514,22.200 292.236 C 22.750 292.957,23.200 293.919,23.200 294.373 C 23.200 294.828,23.380 295.200,23.600 295.200 C 23.820 295.200,24.000 295.560,24.000 296.000 C 24.000 296.440,24.258 296.800,24.573 296.800 C 24.888 296.800,25.263 297.205,25.405 297.700 C 25.884 299.365,26.835 301.200,27.219 301.200 C 27.428 301.200,27.600 301.524,27.600 301.920 C 27.600 303.156,28.568 304.794,29.300 304.797 C 29.717 304.799,30.000 305.104,30.000 305.550 C 30.000 306.471,31.930 310.000,32.434 310.000 C 32.635 310.000,32.800 310.360,32.800 310.800 C 32.800 311.333,33.067 311.600,33.600 311.600 C 34.092 311.600,34.403 311.870,34.409 312.300 C 34.414 312.685,34.770 313.450,35.200 314.000 C 35.630 314.550,35.986 315.287,35.991 315.638 C 36.002 316.449,37.258 317.600,38.131 317.600 C 38.535 317.600,38.800 317.919,38.800 318.405 C 38.800 319.639,39.471 320.669,42.300 323.781 C 42.795 324.326,43.200 324.886,43.200 325.025 C 43.200 325.165,43.710 325.756,44.333 326.340 C 44.956 326.923,45.589 327.895,45.740 328.500 C 45.892 329.105,46.173 329.600,46.365 329.600 C 46.911 329.600,49.200 331.864,49.200 332.403 C 49.200 332.669,50.155 333.811,51.322 334.943 C 52.489 336.074,53.665 337.450,53.936 338.001 C 54.208 338.552,54.966 339.310,55.622 339.686 C 56.277 340.063,56.937 340.692,57.088 341.084 C 57.434 341.986,58.794 343.359,59.678 343.698 C 60.049 343.840,60.674 344.462,61.067 345.079 C 61.847 346.306,63.615 347.999,64.117 348.000 C 64.592 348.000,65.837 349.304,66.123 350.100 C 66.262 350.485,66.651 350.800,66.987 350.800 C 67.324 350.800,67.600 350.980,67.600 351.200 C 67.600 351.420,67.917 351.600,68.305 351.600 C 68.693 351.600,69.368 352.095,69.805 352.700 C 71.121 354.521,73.666 356.800,74.383 356.800 C 74.612 356.800,74.800 356.980,74.800 357.200 C 74.800 357.420,75.058 357.600,75.373 357.600 C 75.688 357.600,76.060 357.960,76.200 358.400 C 76.340 358.840,76.594 359.200,76.765 359.200 C 76.936 359.200,77.599 359.650,78.238 360.200 C 78.877 360.749,79.625 361.199,79.900 361.200 C 80.175 361.200,80.400 361.380,80.400 361.600 C 80.400 361.820,80.777 362.000,81.237 362.000 C 81.698 362.000,82.159 362.315,82.261 362.700 C 82.484 363.536,85.262 365.600,86.164 365.600 C 86.514 365.600,86.800 365.780,86.800 366.000 C 86.800 366.220,87.160 366.400,87.600 366.400 C 88.102 366.400,88.400 366.667,88.400 367.116 C 88.400 367.847,93.368 370.800,94.598 370.800 C 94.933 370.800,95.200 371.155,95.200 371.600 C 95.200 372.044,95.467 372.400,95.800 372.400 C 96.130 372.400,96.400 372.540,96.400 372.712 C 96.400 372.884,97.300 373.373,98.400 373.800 C 99.500 374.227,100.400 374.716,100.400 374.888 C 100.400 375.060,100.850 375.200,101.400 375.200 C 102.133 375.200,102.400 375.413,102.400 376.000 C 102.400 376.590,102.667 376.800,103.417 376.800 C 103.976 376.800,104.810 377.151,105.271 377.580 C 105.731 378.009,106.624 378.473,107.254 378.612 C 107.884 378.750,108.400 379.029,108.400 379.232 C 108.400 379.434,108.754 379.600,109.186 379.600 C 109.618 379.600,110.165 379.960,110.400 380.400 C 110.650 380.868,111.238 381.200,111.814 381.200 C 112.356 381.200,112.800 381.380,112.800 381.600 C 112.800 381.820,113.149 382.000,113.576 382.000 C 114.003 382.000,114.464 382.180,114.600 382.400 C 114.736 382.620,115.377 382.800,116.024 382.800 C 116.671 382.800,117.200 382.977,117.200 383.192 C 117.200 383.408,117.695 383.707,118.300 383.857 C 118.905 384.007,119.635 384.460,119.923 384.865 C 120.210 385.269,120.885 385.600,121.423 385.600 C 121.960 385.600,122.400 385.780,122.400 386.000 C 122.400 386.220,122.850 386.400,123.400 386.400 C 123.950 386.400,124.400 386.580,124.400 386.800 C 124.400 387.020,125.120 387.200,126.000 387.200 C 126.880 387.200,127.600 387.380,127.600 387.600 C 127.600 387.820,128.202 388.000,128.939 388.000 C 129.914 388.000,130.380 388.229,130.654 388.842 C 131.059 389.751,133.520 390.784,135.300 390.794 C 135.905 390.797,136.400 390.980,136.400 391.200 C 136.400 391.420,137.109 391.600,137.976 391.600 C 138.843 391.600,139.664 391.780,139.800 392.000 C 139.936 392.220,140.736 392.400,141.577 392.400 C 142.758 392.400,143.153 392.578,143.311 393.182 C 143.432 393.642,143.985 394.059,144.658 394.196 C 145.286 394.323,146.353 394.602,147.028 394.814 C 147.704 395.026,149.099 395.200,150.128 395.200 C 151.158 395.200,152.000 395.380,152.000 395.600 C 152.000 395.820,152.900 396.000,154.000 396.000 C 155.100 396.000,156.000 396.180,156.000 396.400 C 156.000 396.620,156.978 396.800,158.173 396.800 C 159.962 396.800,160.389 396.935,160.589 397.565 C 160.795 398.214,161.365 398.370,164.316 398.587 C 166.232 398.728,168.213 399.014,168.719 399.222 C 169.224 399.430,170.763 399.600,172.139 399.600 C 173.606 399.600,174.847 399.807,175.140 400.100 C 175.868 400.828,220.132 400.828,220.860 400.100 C 221.152 399.808,222.385 399.600,223.820 399.600 C 225.173 399.600,226.802 399.432,227.440 399.228 C 228.078 399.023,229.988 398.738,231.683 398.595 C 234.240 398.379,234.808 398.204,235.010 397.567 C 235.211 396.936,235.636 396.800,237.403 396.800 C 238.586 396.800,239.664 396.620,239.800 396.400 C 239.936 396.180,240.937 396.000,242.024 396.000 C 243.111 396.000,244.000 395.835,244.000 395.634 C 244.000 395.433,245.125 395.180,246.500 395.073 C 250.548 394.756,252.738 394.193,253.545 393.264 C 254.015 392.722,254.761 392.400,255.547 392.400 C 256.236 392.400,256.800 392.220,256.800 392.000 C 256.800 391.780,257.689 391.600,258.776 391.600 C 259.863 391.600,260.864 391.420,261.000 391.200 C 261.136 390.980,261.831 390.800,262.544 390.800 C 263.257 390.800,264.011 390.635,264.220 390.434 C 264.429 390.232,265.050 390.007,265.600 389.934 C 266.169 389.858,266.770 389.412,266.995 388.900 C 267.288 388.231,267.725 388.000,268.695 388.000 C 269.413 388.000,270.000 387.820,270.000 387.600 C 270.000 387.380,270.709 387.200,271.576 387.200 C 272.443 387.200,273.264 387.020,273.400 386.800 C 273.536 386.580,274.076 386.400,274.600 386.400 C 275.124 386.400,275.664 386.220,275.800 386.000 C 275.936 385.780,276.353 385.600,276.727 385.600 C 277.101 385.600,277.632 385.240,277.907 384.800 C 278.183 384.358,278.840 384.000,279.375 384.000 C 279.907 384.000,280.613 383.730,280.943 383.400 C 281.273 383.070,281.916 382.800,282.371 382.800 C 282.827 382.800,283.200 382.620,283.200 382.400 C 283.200 382.180,283.740 382.000,284.400 382.000 C 285.060 382.000,285.600 381.820,285.600 381.600 C 285.600 381.380,285.960 381.200,286.400 381.200 C 286.840 381.200,287.200 380.949,287.200 380.643 C 287.200 380.042,288.037 379.600,289.177 379.600 C 289.568 379.600,290.551 379.150,291.362 378.600 C 292.172 378.050,293.188 377.600,293.618 377.600 C 294.048 377.600,294.400 377.420,294.400 377.200 C 294.400 376.980,294.760 376.800,295.200 376.800 C 295.640 376.800,296.000 376.542,296.000 376.227 C 296.000 375.912,296.405 375.541,296.900 375.402 C 298.315 375.006,302.000 373.065,302.000 372.716 C 302.000 372.542,302.377 372.400,302.837 372.400 C 303.338 372.400,303.759 372.079,303.884 371.600 C 303.999 371.160,304.309 370.800,304.572 370.800 C 305.386 370.800,309.200 368.821,309.200 368.399 C 309.200 368.180,309.468 368.000,309.797 368.000 C 310.125 368.000,310.890 367.505,311.497 366.900 C 312.740 365.660,314.137 364.800,314.906 364.800 C 315.570 364.800,316.800 363.369,316.800 362.595 C 316.800 362.265,317.159 362.000,317.605 362.000 C 318.839 362.000,319.869 361.329,322.981 358.500 C 323.526 358.005,324.086 357.600,324.225 357.600 C 324.365 357.600,324.983 357.060,325.600 356.400 C 326.217 355.740,326.905 355.200,327.129 355.200 C 327.353 355.200,328.347 354.390,329.337 353.400 C 330.327 352.410,331.381 351.600,331.680 351.600 C 331.979 351.600,332.488 351.215,332.812 350.745 C 333.135 350.274,333.805 349.473,334.300 348.963 C 334.795 348.453,335.200 347.848,335.200 347.618 C 335.200 347.388,335.628 347.200,336.151 347.200 C 337.121 347.200,337.841 346.572,338.587 345.075 C 338.817 344.614,339.678 343.882,340.500 343.449 C 341.321 343.017,342.207 342.180,342.469 341.590 C 342.730 341.000,343.541 340.108,344.272 339.607 C 345.002 339.106,345.600 338.450,345.600 338.148 C 345.600 337.847,345.780 337.600,346.000 337.600 C 346.220 337.600,346.400 337.252,346.400 336.827 C 346.400 336.402,346.715 335.953,347.100 335.830 C 348.091 335.512,350.800 333.027,350.800 332.435 C 350.800 332.163,351.700 331.051,352.800 329.962 C 353.900 328.874,354.800 327.815,354.800 327.610 C 354.800 327.404,355.250 326.786,355.800 326.236 C 356.350 325.686,356.800 325.132,356.800 325.005 C 356.800 324.878,357.385 324.165,358.100 323.423 C 360.097 321.347,361.188 319.860,361.198 319.200 C 361.203 318.870,361.765 318.160,362.446 317.621 C 363.128 317.083,364.129 315.705,364.671 314.560 C 365.230 313.378,365.990 312.391,366.428 312.277 C 366.881 312.158,367.200 311.728,367.200 311.237 C 367.200 310.777,367.351 310.400,367.536 310.400 C 367.720 310.400,368.215 309.682,368.636 308.805 C 369.056 307.927,369.535 307.207,369.700 307.205 C 369.865 307.202,370.000 306.883,370.000 306.496 C 370.000 306.109,370.360 305.568,370.800 305.293 C 371.240 305.018,371.600 304.525,371.600 304.197 C 371.600 303.868,371.777 303.600,371.992 303.600 C 372.208 303.600,372.507 303.111,372.657 302.513 C 372.807 301.916,373.261 301.072,373.665 300.638 C 374.069 300.204,374.400 299.521,374.400 299.121 C 374.400 298.720,374.760 298.084,375.200 297.707 C 375.640 297.330,376.000 296.792,376.000 296.511 C 376.000 296.230,376.180 296.000,376.400 296.000 C 376.620 296.000,376.800 295.740,376.800 295.421 C 376.800 295.103,377.250 293.996,377.800 292.962 C 378.350 291.927,378.800 290.844,378.800 290.554 C 378.800 290.265,379.160 289.835,379.600 289.600 C 380.068 289.350,380.400 288.762,380.400 288.186 C 380.400 287.644,380.580 287.200,380.800 287.200 C 381.020 287.200,381.200 286.840,381.200 286.400 C 381.200 285.960,381.380 285.600,381.600 285.600 C 381.820 285.600,382.000 284.970,382.000 284.200 C 382.000 283.430,382.177 282.800,382.392 282.800 C 382.608 282.800,382.894 282.363,383.028 281.829 C 383.162 281.296,383.616 280.548,384.036 280.167 C 384.456 279.787,384.800 279.054,384.800 278.538 C 384.800 278.022,384.980 277.600,385.200 277.600 C 385.420 277.600,385.600 277.071,385.600 276.424 C 385.600 275.777,385.780 275.136,386.000 275.000 C 386.220 274.864,386.400 274.223,386.400 273.576 C 386.400 272.929,386.580 272.400,386.800 272.400 C 387.020 272.400,387.200 271.860,387.200 271.200 C 387.200 270.540,387.367 270.000,387.571 270.000 C 388.326 270.000,389.200 268.709,389.200 267.595 C 389.200 266.964,389.380 266.336,389.600 266.200 C 389.820 266.064,390.000 265.434,390.000 264.800 C 390.000 264.166,390.180 263.536,390.400 263.400 C 390.620 263.264,390.800 262.544,390.800 261.800 C 390.800 261.056,390.980 260.336,391.200 260.200 C 391.420 260.064,391.600 259.264,391.600 258.423 C 391.600 257.272,391.783 256.846,392.339 256.700 C 393.097 256.502,393.600 254.925,393.600 252.750 C 393.600 252.118,393.780 251.600,394.000 251.600 C 394.220 251.600,394.400 250.801,394.400 249.824 C 394.400 248.847,394.580 247.936,394.800 247.800 C 395.020 247.664,395.200 246.663,395.200 245.576 C 395.200 244.489,395.380 243.600,395.600 243.600 C 395.824 243.600,396.000 242.509,396.000 241.126 C 396.000 239.224,396.180 238.460,396.779 237.822 C 397.327 237.239,397.633 236.163,397.809 234.197 C 397.948 232.658,398.205 231.040,398.381 230.600 C 398.557 230.160,398.903 229.297,399.150 228.681 C 399.733 227.231,399.724 225.484,399.131 224.891 C 398.772 224.532,398.772 224.179,399.132 223.389 C 399.805 221.912,400.155 194.635,399.628 184.800 C 399.215 177.102,398.831 172.878,398.043 167.400 C 397.822 165.860,397.632 164.178,397.621 163.663 C 397.608 163.072,397.304 162.648,396.800 162.516 C 396.106 162.335,396.000 161.970,396.000 159.777 C 396.000 158.386,395.820 157.136,395.600 157.000 C 395.380 156.864,395.200 155.863,395.200 154.776 C 395.200 153.689,395.020 152.800,394.800 152.800 C 394.580 152.800,394.400 152.001,394.400 151.024 C 394.400 150.047,394.220 149.136,394.000 149.000 C 393.780 148.864,393.600 148.032,393.600 147.150 C 393.600 145.289,393.021 144.000,392.186 144.000 C 391.758 144.000,391.600 143.514,391.600 142.200 C 391.600 141.210,391.420 140.400,391.200 140.400 C 390.980 140.400,390.800 139.680,390.800 138.800 C 390.800 137.920,390.620 137.200,390.400 137.200 C 390.180 137.200,390.000 136.606,390.000 135.880 C 390.000 135.154,389.834 134.389,389.631 134.180 C 389.428 133.971,389.203 133.260,389.131 132.600 C 389.045 131.817,388.687 131.263,388.100 131.005 C 387.479 130.733,387.200 130.268,387.200 129.505 C 387.200 128.897,387.020 128.400,386.800 128.400 C 386.580 128.400,386.400 127.781,386.400 127.024 C 386.400 126.267,386.220 125.536,386.000 125.400 C 385.780 125.264,385.600 124.634,385.600 124.000 C 385.600 123.366,385.420 122.736,385.200 122.600 C 384.980 122.464,384.800 121.915,384.800 121.380 C 384.800 120.840,384.444 120.184,384.000 119.907 C 383.560 119.632,383.200 119.175,383.200 118.891 C 383.200 118.607,382.930 118.271,382.600 118.145 C 382.209 117.995,382.000 117.372,382.000 116.357 C 382.000 115.501,381.820 114.800,381.600 114.800 C 381.380 114.800,381.200 114.530,381.200 114.200 C 381.200 113.870,381.020 113.600,380.800 113.600 C 380.580 113.600,380.400 113.043,380.400 112.363 C 380.400 111.516,380.177 111.067,379.693 110.940 C 379.243 110.823,378.709 109.890,378.226 108.378 C 377.808 107.070,377.316 106.000,377.133 106.000 C 376.950 106.000,376.800 105.730,376.800 105.400 C 376.800 105.070,376.620 104.800,376.400 104.800 C 376.180 104.800,376.000 104.333,376.000 103.763 C 376.000 103.062,375.741 102.657,375.200 102.516 C 374.760 102.401,374.400 101.978,374.400 101.577 C 374.400 101.176,374.220 100.736,374.000 100.600 C 373.780 100.464,373.600 100.003,373.600 99.576 C 373.600 99.149,373.461 98.800,373.291 98.800 C 373.121 98.800,372.635 98.125,372.212 97.300 C 371.788 96.475,371.137 95.440,370.765 95.000 C 370.393 94.560,369.411 92.895,368.583 91.300 C 367.672 89.545,366.825 88.399,366.439 88.397 C 365.824 88.394,364.800 86.749,364.800 85.764 C 364.800 85.501,363.990 84.386,363.000 83.284 C 362.010 82.183,361.200 81.099,361.200 80.875 C 361.200 80.650,361.035 80.407,360.832 80.333 C 360.630 80.260,360.045 79.406,359.532 78.436 C 359.020 77.466,358.248 76.476,357.817 76.236 C 356.650 75.586,356.278 75.156,355.399 73.440 C 354.960 72.582,353.932 71.412,353.115 70.840 C 352.299 70.268,351.624 69.525,351.615 69.188 C 351.607 68.852,351.240 68.317,350.800 68.000 C 350.360 67.683,350.000 67.214,350.000 66.958 C 350.000 66.703,349.642 66.400,349.205 66.285 C 348.767 66.171,348.238 65.627,348.029 65.076 C 347.611 63.976,345.002 61.200,344.387 61.200 C 344.174 61.200,344.000 60.993,344.000 60.740 C 344.000 60.487,343.145 59.497,342.100 58.541 C 341.055 57.585,340.020 56.613,339.800 56.381 C 337.360 53.813,336.214 52.800,335.752 52.800 C 335.448 52.800,335.200 52.542,335.200 52.227 C 335.200 51.912,334.615 51.244,333.900 50.742 C 333.185 50.240,332.540 49.687,332.467 49.514 C 332.393 49.342,332.065 49.200,331.738 49.200 C 331.038 49.200,330.000 48.250,330.000 47.609 C 330.000 46.984,328.086 45.386,326.305 44.524 C 325.482 44.126,324.807 43.529,324.805 43.197 C 324.801 42.685,321.637 40.400,320.931 40.400 C 320.592 40.400,319.200 38.742,319.200 38.339 C 319.200 38.152,318.883 38.000,318.496 38.000 C 318.109 38.000,317.335 37.595,316.776 37.100 C 315.454 35.928,314.162 35.200,313.405 35.200 C 313.072 35.200,312.800 35.027,312.800 34.816 C 312.800 34.175,311.099 32.800,310.305 32.800 C 309.896 32.800,309.145 32.350,308.635 31.800 C 308.125 31.250,307.414 30.800,307.054 30.800 C 306.694 30.800,306.400 30.526,306.400 30.190 C 306.400 29.832,305.904 29.481,305.200 29.340 C 304.540 29.208,304.000 28.942,304.000 28.750 C 304.000 28.558,303.730 28.400,303.400 28.400 C 303.070 28.400,302.800 28.220,302.800 28.000 C 302.800 27.780,302.453 27.600,302.029 27.600 C 301.604 27.600,300.987 27.330,300.657 27.000 C 300.327 26.670,299.786 26.400,299.456 26.400 C 299.125 26.400,298.740 26.040,298.600 25.600 C 298.460 25.160,298.124 24.800,297.853 24.800 C 297.138 24.800,295.207 23.852,295.203 23.500 C 295.201 23.335,294.750 23.200,294.200 23.200 C 293.650 23.200,293.200 23.020,293.200 22.800 C 293.200 22.580,292.847 22.400,292.416 22.400 C 291.984 22.400,291.279 22.022,290.848 21.559 C 289.874 20.514,288.151 19.600,287.154 19.600 C 286.739 19.600,286.400 19.420,286.400 19.200 C 286.400 18.980,285.888 18.800,285.261 18.800 C 283.803 18.800,281.714 17.760,281.184 16.770 C 280.957 16.346,280.358 16.000,279.853 16.000 C 279.347 16.000,278.810 15.877,278.659 15.726 C 278.215 15.282,275.476 14.413,274.500 14.406 C 274.005 14.403,273.600 14.220,273.600 14.000 C 273.600 13.780,273.221 13.600,272.758 13.600 C 272.295 13.600,271.381 13.150,270.727 12.600 C 270.073 12.050,269.203 11.600,268.793 11.600 C 268.383 11.600,267.936 11.420,267.800 11.200 C 267.664 10.980,266.944 10.800,266.200 10.800 C 265.456 10.800,264.736 10.620,264.600 10.400 C 264.464 10.180,263.643 10.000,262.776 10.000 C 261.909 10.000,261.200 9.820,261.200 9.600 C 261.200 9.380,260.572 9.200,259.803 9.200 C 258.840 9.200,258.252 8.952,257.907 8.400 C 257.554 7.834,256.974 7.600,255.927 7.600 C 255.113 7.600,254.339 7.425,254.207 7.212 C 254.075 6.998,253.070 6.704,251.975 6.559 C 250.879 6.413,249.885 6.138,249.767 5.947 C 249.649 5.756,248.764 5.600,247.800 5.600 C 246.836 5.600,245.936 5.420,245.800 5.200 C 245.664 4.980,244.485 4.800,243.180 4.800 C 241.240 4.800,240.716 4.654,240.307 4.000 C 239.890 3.332,239.374 3.200,237.184 3.200 C 235.741 3.200,234.370 3.010,234.139 2.779 C 233.599 2.239,228.183 1.543,222.800 1.322 C 220.490 1.227,218.429 0.981,218.220 0.775 C 217.767 0.328,182.678 0.255,182.235 0.700 M216.000 19.190 C 222.871 19.709,231.636 21.018,235.028 22.033 C 235.704 22.235,236.650 22.400,237.132 22.400 C 238.407 22.400,245.972 24.231,250.600 25.659 C 252.800 26.339,256.274 27.412,258.321 28.045 C 260.367 28.678,262.977 29.616,264.121 30.129 C 265.264 30.642,266.920 31.293,267.800 31.575 C 269.981 32.276,282.432 37.903,282.800 38.355 C 282.910 38.490,284.440 39.303,286.200 40.163 C 287.960 41.023,289.940 42.122,290.600 42.605 C 291.260 43.089,292.562 43.873,293.494 44.347 C 295.308 45.271,302.491 49.881,304.800 51.604 C 309.409 55.042,311.416 56.617,311.533 56.890 C 311.607 57.061,311.850 57.200,312.075 57.200 C 312.491 57.200,317.127 60.991,321.125 64.600 C 323.376 66.632,333.390 76.645,335.726 79.200 C 338.440 82.168,346.933 92.743,347.945 94.413 C 348.305 95.008,349.290 96.464,350.132 97.648 C 352.380 100.805,356.796 107.748,356.798 108.128 C 356.799 108.308,357.327 109.222,357.971 110.158 C 358.615 111.094,359.756 113.107,360.506 114.630 C 361.256 116.154,362.405 118.390,363.059 119.600 C 363.714 120.810,364.497 122.430,364.799 123.200 C 365.102 123.970,366.101 126.220,367.019 128.200 C 367.938 130.180,368.920 132.520,369.202 133.400 C 369.484 134.280,370.299 136.440,371.012 138.200 C 372.217 141.173,372.874 143.217,374.613 149.400 C 374.984 150.720,375.517 152.520,375.799 153.400 C 376.080 154.280,376.609 156.350,376.974 158.000 C 377.339 159.650,377.810 161.553,378.019 162.228 C 378.229 162.904,378.400 164.014,378.400 164.696 C 378.400 165.378,378.651 166.985,378.958 168.268 C 379.486 170.477,380.251 175.608,381.183 183.200 C 381.664 187.112,381.746 196.397,381.300 196.406 C 381.135 196.409,379.838 197.399,378.419 198.606 C 376.999 199.812,375.628 200.800,375.373 200.800 C 375.117 200.800,374.299 201.334,373.554 201.987 C 372.809 202.640,371.615 203.491,370.900 203.878 C 370.185 204.265,369.600 204.721,369.600 204.891 C 369.600 205.061,369.357 205.200,369.060 205.200 C 368.763 205.200,367.728 205.775,366.760 206.479 C 365.792 207.182,363.650 208.508,362.000 209.426 C 360.350 210.343,358.370 211.470,357.600 211.930 C 356.830 212.390,355.570 213.061,354.800 213.421 C 354.030 213.781,352.770 214.423,352.000 214.847 C 348.909 216.548,339.372 220.970,336.164 222.190 C 334.825 222.699,332.755 223.557,331.564 224.097 C 327.714 225.842,324.215 227.202,323.580 227.201 C 323.239 227.201,322.789 227.352,322.580 227.539 C 322.011 228.046,316.282 230.200,312.200 231.442 C 310.220 232.044,308.420 232.657,308.200 232.805 C 307.248 233.444,288.084 238.842,283.400 239.790 C 281.640 240.147,279.570 240.605,278.800 240.810 C 272.666 242.438,266.263 243.704,260.600 244.409 C 259.060 244.601,256.450 245.015,254.800 245.329 C 250.778 246.095,250.590 245.949,248.958 240.776 C 245.486 229.779,236.725 218.771,227.334 213.605 C 226.270 213.021,224.410 212.001,223.200 211.340 C 221.990 210.678,219.920 209.817,218.600 209.425 C 217.280 209.033,215.390 208.474,214.400 208.182 C 205.783 205.646,187.935 206.332,184.953 209.314 C 184.795 209.471,184.327 209.600,183.913 209.600 C 179.998 209.600,166.418 219.650,161.653 226.074 C 159.910 228.424,156.800 233.292,156.800 233.670 C 156.800 233.840,156.371 234.928,155.847 236.089 C 154.459 239.164,153.414 241.890,152.623 244.500 C 152.239 245.765,151.717 246.799,151.463 246.798 C 150.905 246.796,141.808 245.362,139.000 244.833 C 137.900 244.626,135.560 244.251,133.800 243.999 C 130.172 243.480,123.200 242.123,121.400 241.585 C 120.740 241.388,118.850 240.938,117.200 240.585 C 115.550 240.232,113.300 239.748,112.200 239.510 C 111.100 239.272,108.670 238.644,106.800 238.116 C 102.600 236.929,101.959 236.752,97.079 235.430 C 93.645 234.500,89.083 233.023,86.600 232.038 C 86.160 231.863,84.270 231.236,82.400 230.644 C 80.530 230.052,78.100 229.191,77.000 228.731 C 73.901 227.436,73.510 227.289,71.800 226.774 C 70.920 226.508,68.509 225.506,66.442 224.546 C 64.374 223.586,62.505 222.800,62.287 222.800 C 61.440 222.800,42.246 213.290,39.509 211.514 C 39.009 211.190,37.520 210.329,36.200 209.602 C 34.880 208.875,32.810 207.640,31.600 206.858 C 30.390 206.075,28.736 205.067,27.925 204.618 C 27.114 204.168,25.993 203.400,25.435 202.911 C 23.634 201.335,21.032 199.805,19.800 199.600 L 18.600 199.400 18.481 195.800 C 18.335 191.378,19.373 179.799,20.471 173.600 C 20.919 171.070,21.433 167.920,21.612 166.600 C 22.217 162.137,23.173 158.013,25.040 151.800 C 25.371 150.700,25.791 149.170,25.975 148.400 C 26.468 146.329,27.998 141.575,28.613 140.200 C 28.909 139.540,29.635 137.560,30.228 135.800 C 35.175 121.119,50.583 94.729,60.475 83.996 C 60.984 83.444,62.120 82.098,63.000 81.004 C 65.902 77.397,79.717 63.777,82.200 62.074 C 82.420 61.923,83.770 60.808,85.200 59.595 C 86.630 58.382,88.610 56.765,89.600 56.001 C 90.590 55.236,91.670 54.386,92.000 54.111 C 92.330 53.836,93.349 53.113,94.264 52.505 C 95.179 51.897,98.293 49.825,101.185 47.900 C 104.076 45.975,106.551 44.400,106.686 44.400 C 106.820 44.400,107.756 43.873,108.765 43.228 C 113.503 40.203,127.225 33.463,132.400 31.618 C 133.170 31.344,134.160 30.962,134.600 30.771 C 138.377 29.125,145.296 26.800,146.418 26.800 C 146.854 26.800,147.523 26.636,147.905 26.435 C 149.845 25.418,156.257 23.648,161.000 22.822 C 162.540 22.553,164.430 22.186,165.200 22.005 C 171.110 20.618,177.733 19.699,185.400 19.202 C 188.920 18.974,192.250 18.714,192.800 18.624 C 194.335 18.375,210.380 18.766,216.000 19.190 M209.427 223.934 C 210.952 224.338,213.207 225.148,214.439 225.734 C 215.670 226.320,216.885 226.800,217.139 226.800 C 217.392 226.800,217.600 226.960,217.600 227.157 C 217.600 227.353,218.007 227.615,218.505 227.740 C 219.281 227.935,221.574 229.663,224.600 232.333 C 242.495 248.124,235.223 281.880,212.600 288.040 C 203.562 290.500,196.891 290.627,191.800 288.433 C 191.360 288.243,190.226 287.878,189.280 287.622 C 182.347 285.743,172.200 275.473,170.091 268.200 C 168.316 262.077,168.259 261.708,168.255 256.400 C 168.253 252.616,168.439 250.402,168.877 249.000 C 169.221 247.900,169.736 246.190,170.023 245.200 C 170.647 243.047,172.221 239.758,172.798 239.401 C 173.026 239.260,173.454 238.573,173.749 237.873 C 175.071 234.742,182.269 228.564,187.344 226.204 C 193.907 223.152,202.958 222.222,209.427 223.934 M29.859 244.985 C 32.247 246.186,34.650 247.428,35.200 247.744 C 35.750 248.060,37.550 248.908,39.200 249.628 C 40.850 250.348,42.871 251.356,43.692 251.868 C 44.513 252.381,45.460 252.800,45.797 252.800 C 46.135 252.800,46.723 252.968,47.105 253.173 C 47.892 253.594,52.288 255.612,54.400 256.520 C 55.170 256.852,57.150 257.610,58.800 258.206 C 60.450 258.802,62.970 259.790,64.400 260.402 C 65.830 261.014,68.440 261.965,70.200 262.516 C 71.960 263.067,74.660 264.003,76.200 264.597 C 77.740 265.190,79.630 265.820,80.400 265.997 C 82.012 266.367,84.483 267.103,90.400 268.975 C 92.710 269.706,96.670 270.785,99.200 271.373 C 101.730 271.961,104.610 272.681,105.600 272.972 C 108.927 273.951,110.582 274.341,114.200 274.997 C 116.180 275.356,118.520 275.805,119.400 275.995 C 129.845 278.253,132.041 278.655,138.000 279.398 C 140.750 279.741,144.080 280.188,145.400 280.391 C 146.720 280.595,149.600 280.967,151.800 281.219 C 158.135 281.945,158.528 282.102,160.048 284.505 C 161.455 286.730,164.751 290.702,166.380 292.137 C 166.919 292.612,168.179 293.736,169.180 294.636 C 174.753 299.647,182.637 303.513,191.600 305.629 C 194.505 306.316,208.199 306.331,211.200 305.651 C 215.519 304.673,222.661 302.107,223.780 301.131 C 223.989 300.949,224.383 300.800,224.656 300.800 C 225.106 300.800,230.329 297.403,232.800 295.504 C 236.046 293.009,242.490 285.783,244.083 282.850 C 244.861 281.419,246.163 280.800,248.396 280.800 C 249.244 280.800,250.808 280.629,251.869 280.420 C 252.931 280.211,256.050 279.750,258.800 279.397 C 265.256 278.567,266.909 278.269,277.600 276.003 C 278.590 275.793,280.930 275.340,282.800 274.997 C 286.043 274.401,287.943 273.963,290.600 273.202 C 291.260 273.013,293.330 272.478,295.200 272.014 C 297.070 271.550,299.140 271.014,299.800 270.823 C 300.460 270.632,301.697 270.356,302.549 270.211 C 303.401 270.065,304.391 269.791,304.749 269.602 C 305.480 269.217,312.235 267.130,315.600 266.249 C 316.810 265.933,319.780 264.954,322.200 264.074 C 324.620 263.195,327.320 262.253,328.200 261.982 C 329.080 261.711,330.160 261.338,330.600 261.152 C 334.121 259.670,340.644 257.200,341.038 257.200 C 341.307 257.200,342.398 256.763,343.463 256.230 C 346.517 254.700,350.819 252.800,351.231 252.800 C 351.621 252.800,356.935 250.303,366.696 245.532 C 374.290 241.821,374.405 241.964,371.352 251.330 C 368.095 261.321,367.562 262.856,366.620 264.948 C 366.112 266.077,365.384 267.900,365.002 269.000 C 364.620 270.100,363.536 272.620,362.593 274.600 C 361.651 276.580,360.321 279.370,359.639 280.800 C 357.608 285.058,354.411 290.910,353.371 292.273 C 352.837 292.974,352.400 293.700,352.400 293.887 C 352.400 294.291,350.016 298.150,348.832 299.663 C 348.374 300.248,348.000 300.846,348.000 300.991 C 348.000 301.293,345.591 304.896,345.186 305.200 C 345.040 305.310,344.414 306.210,343.796 307.200 C 343.177 308.190,341.936 309.928,341.036 311.063 C 340.136 312.197,338.991 313.662,338.491 314.318 C 337.463 315.665,333.214 320.740,331.400 322.786 C 329.641 324.770,318.873 335.505,316.540 337.600 C 313.084 340.705,310.365 342.986,309.670 343.366 C 309.301 343.567,308.910 343.847,308.800 343.987 C 308.430 344.460,302.845 348.800,302.607 348.800 C 302.477 348.800,301.218 349.655,299.809 350.700 C 296.571 353.102,290.451 357.074,289.400 357.457 C 288.960 357.617,287.610 358.408,286.400 359.214 C 285.190 360.020,281.500 361.987,278.200 363.586 C 274.900 365.184,271.480 366.848,270.600 367.284 C 269.720 367.720,268.010 368.442,266.800 368.888 C 265.590 369.334,264.429 369.857,264.220 370.049 C 264.011 370.242,263.590 370.400,263.285 370.400 C 262.980 370.400,260.721 371.180,258.265 372.134 C 255.809 373.087,252.990 374.088,252.000 374.358 C 248.689 375.260,245.814 376.101,244.200 376.638 C 242.798 377.104,240.378 377.698,236.200 378.601 C 235.540 378.744,234.010 379.009,232.800 379.190 C 231.590 379.371,229.880 379.703,229.000 379.927 C 213.873 383.777,186.586 383.986,169.400 380.383 C 167.200 379.922,164.410 379.396,163.200 379.214 C 160.713 378.839,156.858 377.953,153.600 377.006 C 152.390 376.655,150.860 376.210,150.200 376.019 C 149.540 375.827,148.460 375.483,147.800 375.255 C 147.140 375.026,145.520 374.538,144.200 374.171 C 141.788 373.500,137.685 372.015,135.340 370.964 C 134.646 370.654,133.879 370.400,133.634 370.400 C 133.389 370.400,132.877 370.235,132.495 370.034 C 132.113 369.832,131.080 369.363,130.200 368.991 C 123.575 366.189,114.114 361.433,108.800 358.233 C 103.781 355.211,97.390 351.035,96.358 350.103 C 95.785 349.585,94.765 348.855,94.092 348.481 C 93.418 348.106,92.177 347.239,91.334 346.554 C 90.490 345.869,87.820 343.726,85.400 341.793 C 80.938 338.229,79.832 337.228,73.398 330.927 C 67.426 325.079,60.541 317.251,56.221 311.397 C 55.573 310.519,54.928 309.710,54.789 309.600 C 54.538 309.402,50.568 303.706,49.800 302.442 C 49.580 302.080,48.995 301.219,48.500 300.530 C 48.005 299.841,47.600 299.148,47.600 298.992 C 47.600 298.835,46.997 297.873,46.261 296.854 C 43.591 293.158,36.987 280.276,33.623 272.200 C 32.249 268.900,30.961 265.887,30.762 265.505 C 30.563 265.123,30.400 264.521,30.400 264.166 C 30.400 263.811,30.143 262.954,29.829 262.260 C 28.469 259.256,26.864 254.212,25.992 250.200 C 25.801 249.320,25.351 247.550,24.992 246.267 C 23.839 242.146,24.088 242.080,29.859 244.985 " stroke="none" fill="#060505" fill-rule="evenodd"></path><path id="path2" d="M192.800 18.624 C 192.250 18.714,188.920 18.974,185.400 19.202 C 177.733 19.699,171.110 20.618,165.200 22.005 C 164.430 22.186,162.540 22.553,161.000 22.822 C 156.257 23.648,149.845 25.418,147.905 26.435 C 147.523 26.636,146.854 26.800,146.418 26.800 C 145.296 26.800,138.377 29.125,134.600 30.771 C 134.160 30.962,133.170 31.344,132.400 31.618 C 127.225 33.463,113.503 40.203,108.765 43.228 C 107.756 43.873,106.820 44.400,106.686 44.400 C 106.551 44.400,104.076 45.975,101.185 47.900 C 98.293 49.825,95.179 51.897,94.264 52.505 C 93.349 53.113,92.330 53.836,92.000 54.111 C 91.670 54.386,90.590 55.236,89.600 56.001 C 88.610 56.765,86.630 58.382,85.200 59.595 C 83.770 60.808,82.420 61.923,82.200 62.074 C 79.717 63.777,65.902 77.397,63.000 81.004 C 62.120 82.098,60.984 83.444,60.475 83.996 C 50.583 94.729,35.175 121.119,30.228 135.800 C 29.635 137.560,28.909 139.540,28.613 140.200 C 27.998 141.575,26.468 146.329,25.975 148.400 C 25.791 149.170,25.371 150.700,25.040 151.800 C 23.173 158.013,22.217 162.137,21.612 166.600 C 21.433 167.920,20.919 171.070,20.471 173.600 C 19.373 179.799,18.335 191.378,18.481 195.800 L 18.600 199.400 19.800 199.600 C 21.032 199.805,23.634 201.335,25.435 202.911 C 25.993 203.400,27.114 204.168,27.925 204.618 C 28.736 205.067,30.390 206.075,31.600 206.858 C 32.810 207.640,34.880 208.875,36.200 209.602 C 37.520 210.329,39.009 211.190,39.509 211.514 C 42.246 213.290,61.440 222.800,62.287 222.800 C 62.505 222.800,64.374 223.586,66.442 224.546 C 68.509 225.506,70.920 226.508,71.800 226.774 C 73.510 227.289,73.901 227.436,77.000 228.731 C 78.100 229.191,80.530 230.052,82.400 230.644 C 84.270 231.236,86.160 231.863,86.600 232.038 C 89.083 233.023,93.645 234.500,97.079 235.430 C 101.959 236.752,102.600 236.929,106.800 238.116 C 108.670 238.644,111.100 239.272,112.200 239.510 C 113.300 239.748,115.550 240.232,117.200 240.585 C 118.850 240.938,120.740 241.388,121.400 241.585 C 123.200 242.123,130.172 243.480,133.800 243.999 C 135.560 244.251,137.900 244.626,139.000 244.833 C 141.808 245.362,150.905 246.796,151.463 246.798 C 151.717 246.799,152.239 245.765,152.623 244.500 C 153.414 241.890,154.459 239.164,155.847 236.089 C 156.371 234.928,156.800 233.840,156.800 233.670 C 156.800 233.292,159.910 228.424,161.653 226.074 C 166.418 219.650,179.998 209.600,183.913 209.600 C 184.327 209.600,184.795 209.471,184.953 209.314 C 187.935 206.332,205.783 205.646,214.400 208.182 C 215.390 208.474,217.280 209.033,218.600 209.425 C 219.920 209.817,221.990 210.678,223.200 211.340 C 224.410 212.001,226.270 213.021,227.334 213.605 C 236.725 218.771,245.486 229.779,248.958 240.776 C 250.590 245.949,250.778 246.095,254.800 245.329 C 256.450 245.015,259.060 244.601,260.600 244.409 C 266.263 243.704,272.666 242.438,278.800 240.810 C 279.570 240.605,281.640 240.147,283.400 239.790 C 288.084 238.842,307.248 233.444,308.200 232.805 C 308.420 232.657,310.220 232.044,312.200 231.442 C 316.282 230.200,322.011 228.046,322.580 227.539 C 322.789 227.352,323.239 227.201,323.580 227.201 C 324.215 227.202,327.714 225.842,331.564 224.097 C 332.755 223.557,334.825 222.699,336.164 222.190 C 339.372 220.970,348.909 216.548,352.000 214.847 C 352.770 214.423,354.030 213.781,354.800 213.421 C 355.570 213.061,356.830 212.390,357.600 211.930 C 358.370 211.470,360.350 210.343,362.000 209.426 C 363.650 208.508,365.792 207.182,366.760 206.479 C 367.728 205.775,368.763 205.200,369.060 205.200 C 369.357 205.200,369.600 205.061,369.600 204.891 C 369.600 204.721,370.185 204.265,370.900 203.878 C 371.615 203.491,372.809 202.640,373.554 201.987 C 374.299 201.334,375.117 200.800,375.373 200.800 C 375.628 200.800,376.999 199.812,378.419 198.606 C 379.838 197.399,381.135 196.409,381.300 196.406 C 381.746 196.397,381.664 187.112,381.183 183.200 C 380.251 175.608,379.486 170.477,378.958 168.268 C 378.651 166.985,378.400 165.378,378.400 164.696 C 378.400 164.014,378.229 162.904,378.019 162.228 C 377.810 161.553,377.339 159.650,376.974 158.000 C 376.609 156.350,376.080 154.280,375.799 153.400 C 375.517 152.520,374.984 150.720,374.613 149.400 C 372.874 143.217,372.217 141.173,371.012 138.200 C 370.299 136.440,369.484 134.280,369.202 133.400 C 368.920 132.520,367.938 130.180,367.019 128.200 C 366.101 126.220,365.102 123.970,364.799 123.200 C 364.497 122.430,363.714 120.810,363.059 119.600 C 362.405 118.390,361.256 116.154,360.506 114.630 C 359.756 113.107,358.615 111.094,357.971 110.158 C 357.327 109.222,356.799 108.308,356.798 108.128 C 356.796 107.748,352.380 100.805,350.132 97.648 C 349.290 96.464,348.305 95.008,347.945 94.413 C 346.933 92.743,338.440 82.168,335.726 79.200 C 333.390 76.645,323.376 66.632,321.125 64.600 C 317.127 60.991,312.491 57.200,312.075 57.200 C 311.850 57.200,311.607 57.061,311.533 56.890 C 311.416 56.617,309.409 55.042,304.800 51.604 C 302.491 49.881,295.308 45.271,293.494 44.347 C 292.562 43.873,291.260 43.089,290.600 42.605 C 289.940 42.122,287.960 41.023,286.200 40.163 C 284.440 39.303,282.910 38.490,282.800 38.355 C 282.432 37.903,269.981 32.276,267.800 31.575 C 266.920 31.293,265.264 30.642,264.121 30.129 C 262.977 29.616,260.367 28.678,258.321 28.045 C 256.274 27.412,252.800 26.339,250.600 25.659 C 245.972 24.231,238.407 22.400,237.132 22.400 C 236.650 22.400,235.704 22.235,235.028 22.033 C 227.896 19.900,199.197 17.583,192.800 18.624 M217.216 20.192 C 219.737 20.518,223.960 21.065,226.600 21.408 C 229.240 21.750,232.168 22.204,233.106 22.415 C 234.044 22.627,235.451 22.800,236.232 22.800 C 237.013 22.800,238.046 23.012,238.526 23.270 C 239.007 23.529,240.030 23.870,240.800 24.028 C 241.570 24.187,244.360 24.899,247.000 25.611 C 249.640 26.322,252.430 26.994,253.200 27.104 C 253.970 27.214,254.690 27.434,254.800 27.595 C 254.910 27.755,256.980 28.553,259.400 29.368 C 261.820 30.183,264.113 31.019,264.495 31.225 C 264.877 31.431,265.430 31.600,265.724 31.600 C 266.018 31.600,267.373 32.140,268.735 32.800 C 270.098 33.460,271.311 34.000,271.431 34.000 C 272.062 34.000,284.680 40.141,287.000 41.577 C 287.880 42.122,289.590 43.086,290.800 43.720 C 292.010 44.354,294.033 45.577,295.295 46.437 C 296.558 47.296,297.712 48.000,297.859 48.000 C 298.007 48.000,299.044 48.680,300.164 49.512 C 301.284 50.343,302.740 51.356,303.400 51.762 C 305.283 52.920,311.046 57.217,313.375 59.200 C 314.538 60.190,316.870 62.170,318.559 63.600 C 324.815 68.900,336.814 81.191,340.143 85.709 C 340.754 86.539,341.692 87.656,342.227 88.191 C 342.762 88.726,343.200 89.277,343.200 89.416 C 343.200 89.747,346.912 94.561,347.300 94.733 C 347.465 94.807,347.600 95.023,347.600 95.214 C 347.600 95.405,348.455 96.758,349.500 98.219 C 350.545 99.681,351.580 101.173,351.800 101.534 C 352.020 101.895,352.994 103.453,353.964 104.996 C 354.934 106.538,356.348 108.970,357.105 110.400 C 357.863 111.830,358.701 113.270,358.969 113.600 C 359.857 114.696,365.167 125.815,366.514 129.400 C 366.844 130.280,367.579 131.990,368.148 133.200 C 368.716 134.410,369.794 137.290,370.543 139.600 C 371.293 141.910,372.129 144.340,372.403 145.000 C 372.676 145.660,373.042 146.560,373.215 147.000 C 373.389 147.440,374.281 150.860,375.198 154.600 C 376.114 158.340,377.041 162.120,377.258 163.000 C 378.806 169.299,381.295 192.933,380.651 195.215 C 380.499 195.757,379.524 196.820,378.487 197.578 C 374.880 200.211,369.505 203.812,366.063 205.902 C 364.158 207.058,362.316 208.228,361.969 208.502 C 360.644 209.547,344.656 217.650,341.200 219.027 C 339.770 219.597,337.623 220.589,336.429 221.232 C 335.235 221.874,334.017 222.400,333.724 222.400 C 333.430 222.400,332.877 222.562,332.495 222.759 C 332.113 222.956,330.990 223.424,330.000 223.798 C 328.118 224.510,323.101 226.650,321.905 227.251 C 321.523 227.443,320.979 227.600,320.696 227.600 C 320.232 227.600,314.985 229.490,313.000 230.373 C 312.560 230.568,311.210 231.020,310.000 231.376 C 308.790 231.732,305.190 232.838,302.000 233.835 C 298.810 234.832,295.647 235.817,294.972 236.024 C 294.296 236.231,293.349 236.400,292.866 236.400 C 292.384 236.400,291.677 236.565,291.295 236.767 C 290.913 236.970,288.980 237.524,287.000 238.000 C 285.020 238.476,283.087 239.030,282.705 239.233 C 282.323 239.435,281.633 239.600,281.171 239.600 C 280.709 239.600,279.222 239.863,277.866 240.184 C 276.510 240.505,274.410 240.952,273.200 241.177 C 271.990 241.401,269.650 241.884,268.000 242.249 C 264.045 243.124,261.597 243.558,258.200 243.983 C 256.660 244.176,254.600 244.517,253.622 244.742 C 251.442 245.242,251.334 245.180,250.767 243.083 C 250.234 241.109,248.011 235.570,247.531 235.020 C 247.349 234.811,247.200 234.361,247.199 234.020 C 247.199 233.679,246.389 232.168,245.399 230.663 C 244.410 229.157,243.600 227.832,243.600 227.718 C 243.600 227.604,242.835 226.589,241.900 225.462 C 240.965 224.334,239.840 222.977,239.400 222.444 C 237.267 219.863,229.882 213.600,228.971 213.600 C 228.842 213.600,227.805 212.989,226.668 212.242 C 224.645 210.913,223.267 210.286,218.000 208.294 C 207.966 204.499,193.671 204.713,183.800 208.806 C 183.360 208.989,182.100 209.454,181.000 209.840 C 179.900 210.227,178.522 210.871,177.938 211.272 C 177.354 211.672,176.775 212.000,176.651 212.000 C 176.060 212.000,170.487 215.871,169.642 216.869 C 169.115 217.491,168.466 218.000,168.199 218.000 C 167.277 218.000,161.629 224.408,158.680 228.800 C 155.643 233.324,152.790 240.072,152.117 244.323 L 151.907 245.647 148.654 245.380 C 146.864 245.233,144.050 244.863,142.400 244.557 C 140.750 244.251,138.783 244.000,138.028 244.000 C 137.274 244.000,136.104 243.830,135.428 243.623 C 134.362 243.296,130.403 242.453,124.000 241.189 C 115.406 239.493,115.898 239.605,110.000 238.000 C 106.486 237.044,105.121 236.685,101.600 235.792 C 97.192 234.674,83.937 230.380,80.000 228.795 C 78.790 228.308,77.303 227.819,76.695 227.709 C 76.087 227.598,75.492 227.349,75.371 227.154 C 75.251 226.959,74.807 226.800,74.384 226.800 C 73.961 226.800,72.090 226.086,70.226 225.212 C 68.362 224.339,66.377 223.509,65.815 223.368 C 65.252 223.227,64.694 222.951,64.573 222.756 C 64.452 222.560,64.088 222.400,63.765 222.400 C 63.441 222.400,61.141 221.410,58.652 220.200 C 56.164 218.990,53.840 218.000,53.488 218.000 C 53.135 218.000,52.729 217.808,52.583 217.573 C 52.438 217.338,50.403 216.192,48.060 215.026 C 45.717 213.860,42.360 212.073,40.600 211.056 C 38.840 210.038,37.263 209.205,37.095 209.203 C 36.928 209.201,35.758 208.501,34.495 207.647 C 33.233 206.793,31.480 205.712,30.600 205.245 C 29.720 204.777,27.380 203.222,25.400 201.789 C 23.420 200.356,21.285 198.872,20.656 198.492 L 19.511 197.800 19.757 191.200 C 19.892 187.570,20.376 181.540,20.832 177.800 C 21.289 174.060,21.750 170.010,21.858 168.800 C 21.965 167.590,22.207 166.240,22.396 165.800 C 22.584 165.360,23.295 162.570,23.976 159.600 C 24.656 156.630,25.480 153.284,25.806 152.165 C 26.133 151.046,26.400 149.828,26.400 149.459 C 26.400 149.091,26.573 148.477,26.784 148.095 C 26.995 147.713,28.001 144.880,29.018 141.800 C 30.035 138.720,31.107 135.660,31.400 135.000 C 33.483 130.303,34.000 129.057,34.000 128.735 C 34.000 127.736,42.829 110.685,45.582 106.367 C 46.342 105.175,47.306 103.570,47.724 102.800 C 48.142 102.030,48.800 101.040,49.185 100.600 C 49.570 100.160,50.662 98.630,51.611 97.200 C 52.560 95.770,54.116 93.599,55.068 92.375 C 56.021 91.151,56.800 90.016,56.800 89.852 C 56.800 89.687,57.565 88.739,58.500 87.744 C 59.435 86.750,60.468 85.497,60.797 84.961 C 63.392 80.722,80.932 63.716,89.133 57.486 C 89.940 56.873,90.952 56.078,91.382 55.719 C 91.813 55.360,93.613 54.088,95.382 52.892 C 97.152 51.695,99.050 50.322,99.600 49.839 C 100.150 49.357,101.140 48.703,101.800 48.386 C 102.460 48.069,103.990 47.156,105.200 46.356 C 106.410 45.557,108.480 44.317,109.800 43.600 C 111.120 42.884,112.470 42.084,112.800 41.823 C 113.643 41.158,125.348 35.436,127.975 34.406 C 129.171 33.937,131.061 33.132,132.175 32.616 C 133.289 32.101,136.450 30.923,139.200 29.998 C 141.950 29.073,144.561 28.089,145.002 27.813 C 145.442 27.537,146.432 27.216,147.202 27.101 C 147.971 26.986,150.760 26.312,153.400 25.602 C 156.040 24.893,158.844 24.182,159.631 24.023 C 160.418 23.863,161.318 23.571,161.631 23.373 C 161.944 23.175,163.280 22.896,164.600 22.753 C 165.920 22.610,169.520 22.118,172.600 21.660 C 185.008 19.812,186.453 19.705,199.616 19.652 C 209.050 19.614,213.894 19.763,217.216 20.192 " stroke="none" fill="#970404" fill-rule="evenodd"></path><path id="path3" d="M182.400 20.265 C 180.090 20.573,175.680 21.201,172.600 21.660 C 169.520 22.118,165.920 22.610,164.600 22.753 C 163.280 22.896,161.944 23.175,161.631 23.373 C 161.318 23.571,160.418 23.863,159.631 24.023 C 158.844 24.182,156.040 24.893,153.400 25.602 C 150.760 26.312,147.971 26.986,147.202 27.101 C 146.432 27.216,145.442 27.537,145.002 27.813 C 144.561 28.089,141.950 29.073,139.200 29.998 C 136.450 30.923,133.289 32.101,132.175 32.616 C 131.061 33.132,129.171 33.937,127.975 34.406 C 125.348 35.436,113.643 41.158,112.800 41.823 C 112.470 42.084,111.120 42.884,109.800 43.600 C 108.480 44.317,106.410 45.557,105.200 46.356 C 103.990 47.156,102.460 48.069,101.800 48.386 C 101.140 48.703,100.150 49.357,99.600 49.839 C 99.050 50.322,97.152 51.695,95.382 52.892 C 93.613 54.088,91.813 55.360,91.382 55.719 C 90.952 56.078,89.940 56.873,89.133 57.486 C 80.932 63.716,63.392 80.722,60.797 84.961 C 60.468 85.497,59.435 86.750,58.500 87.744 C 57.565 88.739,56.800 89.687,56.800 89.852 C 56.800 90.016,56.021 91.151,55.068 92.375 C 54.116 93.599,52.560 95.770,51.611 97.200 C 50.662 98.630,49.570 100.160,49.185 100.600 C 48.800 101.040,48.142 102.030,47.724 102.800 C 47.306 103.570,46.342 105.175,45.582 106.367 C 42.829 110.685,34.000 127.736,34.000 128.735 C 34.000 129.057,33.483 130.303,31.400 135.000 C 31.107 135.660,30.035 138.720,29.018 141.800 C 28.001 144.880,26.995 147.713,26.784 148.095 C 26.573 148.477,26.400 149.091,26.400 149.459 C 26.400 149.828,26.133 151.046,25.806 152.165 C 25.480 153.284,24.656 156.630,23.976 159.600 C 23.295 162.570,22.584 165.360,22.396 165.800 C 22.207 166.240,21.965 167.590,21.858 168.800 C 21.750 170.010,21.289 174.060,20.832 177.800 C 20.376 181.540,19.892 187.570,19.757 191.200 L 19.511 197.800 20.656 198.492 C 21.285 198.872,23.420 200.356,25.400 201.789 C 27.380 203.222,29.720 204.777,30.600 205.245 C 31.480 205.712,33.233 206.793,34.495 207.647 C 35.758 208.501,36.928 209.201,37.095 209.203 C 37.263 209.205,38.840 210.038,40.600 211.056 C 42.360 212.073,45.717 213.860,48.060 215.026 C 50.403 216.192,52.438 217.338,52.583 217.573 C 52.729 217.808,53.135 218.000,53.488 218.000 C 53.840 218.000,56.164 218.990,58.652 220.200 C 61.141 221.410,63.441 222.400,63.765 222.400 C 64.088 222.400,64.452 222.560,64.573 222.756 C 64.694 222.951,65.252 223.227,65.815 223.368 C 66.377 223.509,68.362 224.339,70.226 225.212 C 72.090 226.086,73.961 226.800,74.384 226.800 C 74.807 226.800,75.251 226.959,75.371 227.154 C 75.492 227.349,76.087 227.598,76.695 227.709 C 77.303 227.819,78.790 228.308,80.000 228.795 C 83.937 230.380,97.192 234.674,101.600 235.792 C 105.121 236.685,106.486 237.044,110.000 238.000 C 115.898 239.605,115.406 239.493,124.000 241.189 C 130.403 242.453,134.362 243.296,135.428 243.623 C 136.104 243.830,137.274 244.000,138.028 244.000 C 138.783 244.000,140.750 244.251,142.400 244.557 C 144.050 244.863,146.864 245.233,148.654 245.380 L 151.907 245.647 152.117 244.323 C 152.790 240.072,155.643 233.324,158.680 228.800 C 161.629 224.408,167.277 218.000,168.199 218.000 C 168.466 218.000,169.115 217.491,169.642 216.869 C 170.487 215.871,176.060 212.000,176.651 212.000 C 176.775 212.000,177.354 211.672,177.938 211.272 C 178.522 210.871,179.900 210.227,181.000 209.840 C 182.100 209.454,183.360 208.989,183.800 208.806 C 193.671 204.713,207.966 204.499,218.000 208.294 C 223.267 210.286,224.645 210.913,226.668 212.242 C 227.805 212.989,228.842 213.600,228.971 213.600 C 229.882 213.600,237.267 219.863,239.400 222.444 C 239.840 222.977,240.965 224.334,241.900 225.462 C 242.835 226.589,243.600 227.604,243.600 227.718 C 243.600 227.832,244.410 229.157,245.399 230.663 C 246.389 232.168,247.199 233.679,247.199 234.020 C 247.200 234.361,247.349 234.811,247.531 235.020 C 248.011 235.570,250.234 241.109,250.767 243.083 C 251.334 245.180,251.442 245.242,253.622 244.742 C 254.600 244.517,256.660 244.176,258.200 243.983 C 261.597 243.558,264.045 243.124,268.000 242.249 C 269.650 241.884,271.990 241.401,273.200 241.177 C 274.410 240.952,276.510 240.505,277.866 240.184 C 279.222 239.863,280.709 239.600,281.171 239.600 C 281.633 239.600,282.323 239.435,282.705 239.233 C 283.087 239.030,285.020 238.476,287.000 238.000 C 288.980 237.524,290.913 236.970,291.295 236.767 C 291.677 236.565,292.384 236.400,292.866 236.400 C 293.349 236.400,294.296 236.231,294.972 236.024 C 295.647 235.817,298.810 234.832,302.000 233.835 C 305.190 232.838,308.790 231.732,310.000 231.376 C 311.210 231.020,312.560 230.568,313.000 230.373 C 314.985 229.490,320.232 227.600,320.696 227.600 C 320.979 227.600,321.523 227.443,321.905 227.251 C 323.101 226.650,328.118 224.510,330.000 223.798 C 330.990 223.424,332.113 222.956,332.495 222.759 C 332.877 222.562,333.430 222.400,333.724 222.400 C 334.017 222.400,335.235 221.874,336.429 221.232 C 337.623 220.589,339.770 219.597,341.200 219.027 C 344.656 217.650,360.644 209.547,361.969 208.502 C 362.316 208.228,364.158 207.058,366.063 205.902 C 369.505 203.812,374.880 200.211,378.487 197.578 C 379.524 196.820,380.499 195.757,380.651 195.215 C 381.295 192.933,378.806 169.299,377.258 163.000 C 377.041 162.120,376.114 158.340,375.198 154.600 C 374.281 150.860,373.389 147.440,373.215 147.000 C 373.042 146.560,372.676 145.660,372.403 145.000 C 372.129 144.340,371.293 141.910,370.543 139.600 C 369.794 137.290,368.716 134.410,368.148 133.200 C 367.579 131.990,366.844 130.280,366.514 129.400 C 365.167 125.815,359.857 114.696,358.969 113.600 C 358.701 113.270,357.863 111.830,357.105 110.400 C 356.348 108.970,354.934 106.538,353.964 104.996 C 352.994 103.453,352.020 101.895,351.800 101.534 C 351.580 101.173,350.545 99.681,349.500 98.219 C 348.455 96.758,347.600 95.405,347.600 95.214 C 347.600 95.023,347.465 94.807,347.300 94.733 C 346.912 94.561,343.200 89.747,343.200 89.416 C 343.200 89.277,342.762 88.726,342.227 88.191 C 341.692 87.656,340.754 86.539,340.143 85.709 C 336.814 81.191,324.815 68.900,318.559 63.600 C 316.870 62.170,314.538 60.190,313.375 59.200 C 311.046 57.217,305.283 52.920,303.400 51.762 C 302.740 51.356,301.284 50.343,300.164 49.512 C 299.044 48.680,298.007 48.000,297.859 48.000 C 297.712 48.000,296.558 47.296,295.295 46.437 C 294.033 45.577,292.010 44.354,290.800 43.720 C 289.590 43.086,287.880 42.122,287.000 41.577 C 284.680 40.141,272.062 34.000,271.431 34.000 C 271.311 34.000,270.098 33.460,268.735 32.800 C 267.373 32.140,266.018 31.600,265.724 31.600 C 265.430 31.600,264.877 31.431,264.495 31.225 C 264.113 31.019,261.820 30.183,259.400 29.368 C 256.980 28.553,254.910 27.755,254.800 27.595 C 254.690 27.434,253.970 27.214,253.200 27.104 C 252.430 26.994,249.640 26.322,247.000 25.611 C 244.360 24.899,241.570 24.187,240.800 24.028 C 240.030 23.870,239.007 23.529,238.526 23.270 C 238.046 23.012,237.013 22.800,236.232 22.800 C 235.451 22.800,234.044 22.627,233.106 22.415 C 232.168 22.204,229.240 21.750,226.600 21.408 C 223.960 21.065,219.737 20.518,217.216 20.192 C 211.136 19.407,188.474 19.454,182.400 20.265 " stroke="none" fill="#fb0404" fill-rule="evenodd"></path><path id="path4" d="M193.344 223.993 C 185.768 225.979,175.785 233.051,173.749 237.873 C 173.454 238.573,173.026 239.260,172.798 239.401 C 172.221 239.758,170.647 243.047,170.023 245.200 C 169.736 246.190,169.221 247.900,168.877 249.000 C 168.439 250.402,168.253 252.616,168.255 256.400 C 168.259 261.708,168.316 262.077,170.091 268.200 C 172.200 275.473,182.347 285.743,189.280 287.622 C 190.226 287.878,191.360 288.243,191.800 288.433 C 196.891 290.627,203.562 290.500,212.600 288.040 C 228.914 283.598,238.685 263.492,233.225 245.600 C 232.114 241.959,227.546 234.933,224.600 232.333 C 221.574 229.663,219.281 227.935,218.505 227.740 C 218.007 227.615,217.600 227.353,217.600 227.157 C 217.600 226.960,217.392 226.800,217.139 226.800 C 216.885 226.800,215.670 226.320,214.439 225.734 C 208.896 223.095,199.673 222.334,193.344 223.993 M210.600 225.306 C 216.934 227.318,219.564 228.812,223.747 232.776 C 226.117 235.022,230.400 240.446,230.400 241.202 C 230.400 241.427,230.559 241.923,230.753 242.305 C 235.142 250.932,235.217 261.918,230.947 270.500 C 229.493 273.422,228.937 274.340,227.561 276.089 C 226.743 277.128,226.012 278.118,225.937 278.289 C 225.616 279.018,220.421 283.156,218.400 284.292 C 214.006 286.764,212.266 287.600,211.514 287.600 C 211.092 287.600,210.444 287.762,210.073 287.961 C 208.798 288.643,201.504 289.133,197.968 288.774 C 192.378 288.206,190.015 287.448,185.000 284.613 C 182.501 283.201,181.184 282.179,178.256 279.382 C 171.351 272.787,167.659 261.450,169.222 251.646 C 169.966 246.981,170.710 245.006,174.011 238.926 C 180.105 227.706,197.623 221.185,210.600 225.306 M24.557 243.367 C 24.437 243.679,24.633 244.984,24.992 246.267 C 25.351 247.550,25.801 249.320,25.992 250.200 C 26.864 254.212,28.469 259.256,29.829 262.260 C 30.143 262.954,30.400 263.811,30.400 264.166 C 30.400 264.521,30.563 265.123,30.762 265.505 C 30.961 265.887,32.249 268.900,33.623 272.200 C 36.987 280.276,43.591 293.158,46.261 296.854 C 46.997 297.873,47.600 298.835,47.600 298.992 C 47.600 299.148,48.005 299.841,48.500 300.530 C 48.995 301.219,49.580 302.080,49.800 302.442 C 50.568 303.706,54.538 309.402,54.789 309.600 C 54.928 309.710,55.573 310.519,56.221 311.397 C 60.541 317.251,67.426 325.079,73.398 330.927 C 79.832 337.228,80.938 338.229,85.400 341.793 C 87.820 343.726,90.490 345.869,91.334 346.554 C 92.177 347.239,93.418 348.106,94.092 348.481 C 94.765 348.855,95.785 349.585,96.358 350.103 C 97.390 351.035,103.781 355.211,108.800 358.233 C 114.114 361.433,123.575 366.189,130.200 368.991 C 131.080 369.363,132.113 369.832,132.495 370.034 C 132.877 370.235,133.389 370.400,133.634 370.400 C 133.879 370.400,134.646 370.654,135.340 370.964 C 137.685 372.015,141.788 373.500,144.200 374.171 C 145.520 374.538,147.140 375.026,147.800 375.255 C 148.460 375.483,149.540 375.827,150.200 376.019 C 150.860 376.210,152.390 376.655,153.600 377.006 C 156.858 377.953,160.713 378.839,163.200 379.214 C 164.410 379.396,167.200 379.922,169.400 380.383 C 186.586 383.986,213.873 383.777,229.000 379.927 C 229.880 379.703,231.590 379.371,232.800 379.190 C 234.010 379.009,235.540 378.744,236.200 378.601 C 240.378 377.698,242.798 377.104,244.200 376.638 C 245.814 376.101,248.689 375.260,252.000 374.358 C 252.990 374.088,255.809 373.087,258.265 372.134 C 260.721 371.180,262.980 370.400,263.285 370.400 C 263.590 370.400,264.011 370.242,264.220 370.049 C 264.429 369.857,265.590 369.334,266.800 368.888 C 268.010 368.442,269.720 367.720,270.600 367.284 C 271.480 366.848,274.900 365.184,278.200 363.586 C 281.500 361.987,285.190 360.020,286.400 359.214 C 287.610 358.408,288.960 357.617,289.400 357.457 C 290.451 357.074,296.571 353.102,299.809 350.700 C 301.218 349.655,302.477 348.800,302.607 348.800 C 302.845 348.800,308.430 344.460,308.800 343.987 C 308.910 343.847,309.301 343.567,309.670 343.366 C 310.365 342.986,313.084 340.705,316.540 337.600 C 318.873 335.505,329.641 324.770,331.400 322.786 C 333.214 320.740,337.463 315.665,338.491 314.318 C 338.991 313.662,340.136 312.197,341.036 311.063 C 341.936 309.928,343.177 308.190,343.796 307.200 C 344.414 306.210,345.040 305.310,345.186 305.200 C 345.591 304.896,348.000 301.293,348.000 300.991 C 348.000 300.846,348.374 300.248,348.832 299.663 C 350.016 298.150,352.400 294.291,352.400 293.887 C 352.400 293.700,352.837 292.974,353.371 292.273 C 354.411 290.910,357.608 285.058,359.639 280.800 C 360.321 279.370,361.651 276.580,362.593 274.600 C 363.536 272.620,364.620 270.100,365.002 269.000 C 365.384 267.900,366.112 266.077,366.620 264.948 C 367.562 262.856,368.095 261.321,371.352 251.330 C 374.405 241.964,374.290 241.821,366.696 245.532 C 356.935 250.303,351.621 252.800,351.231 252.800 C 350.819 252.800,346.517 254.700,343.463 256.230 C 342.398 256.763,341.307 257.200,341.038 257.200 C 340.644 257.200,334.121 259.670,330.600 261.152 C 330.160 261.338,329.080 261.711,328.200 261.982 C 327.320 262.253,324.620 263.195,322.200 264.074 C 319.780 264.954,316.810 265.933,315.600 266.249 C 312.235 267.130,305.480 269.217,304.749 269.602 C 304.391 269.791,303.401 270.065,302.549 270.211 C 301.697 270.356,300.460 270.632,299.800 270.823 C 299.140 271.014,297.070 271.550,295.200 272.014 C 293.330 272.478,291.260 273.013,290.600 273.202 C 287.943 273.963,286.043 274.401,282.800 274.997 C 280.930 275.340,278.590 275.793,277.600 276.003 C 266.909 278.269,265.256 278.567,258.800 279.397 C 256.050 279.750,252.931 280.211,251.869 280.420 C 250.808 280.629,249.244 280.800,248.396 280.800 C 246.163 280.800,244.861 281.419,244.083 282.850 C 242.490 285.783,236.046 293.009,232.800 295.504 C 230.329 297.403,225.106 300.800,224.656 300.800 C 224.383 300.800,223.989 300.949,223.780 301.131 C 222.661 302.107,215.519 304.673,211.200 305.651 C 208.199 306.331,194.505 306.316,191.600 305.629 C 182.637 303.513,174.753 299.647,169.180 294.636 C 168.179 293.736,166.919 292.612,166.380 292.137 C 164.751 290.702,161.455 286.730,160.048 284.505 C 158.528 282.102,158.135 281.945,151.800 281.219 C 149.600 280.967,146.720 280.595,145.400 280.391 C 144.080 280.188,140.750 279.741,138.000 279.398 C 132.041 278.655,129.845 278.253,119.400 275.995 C 118.520 275.805,116.180 275.356,114.200 274.997 C 110.582 274.341,108.927 273.951,105.600 272.972 C 104.610 272.681,101.730 271.961,99.200 271.373 C 96.670 270.785,92.710 269.706,90.400 268.975 C 84.483 267.103,82.012 266.367,80.400 265.997 C 79.630 265.820,77.740 265.190,76.200 264.597 C 74.660 264.003,71.960 263.067,70.200 262.516 C 68.440 261.965,65.830 261.014,64.400 260.402 C 62.970 259.790,60.450 258.802,58.800 258.206 C 57.150 257.610,55.170 256.852,54.400 256.520 C 52.288 255.612,47.892 253.594,47.105 253.173 C 46.723 252.968,46.135 252.800,45.797 252.800 C 45.460 252.800,44.513 252.381,43.692 251.868 C 42.871 251.356,40.850 250.348,39.200 249.628 C 37.550 248.908,35.750 248.060,35.200 247.744 C 29.155 244.272,24.884 242.515,24.557 243.367 M33.200 247.643 C 34.630 248.342,37.767 249.878,40.172 251.057 C 42.576 252.236,44.758 253.200,45.021 253.200 C 45.284 253.200,46.297 253.646,47.271 254.190 C 49.659 255.525,54.741 257.600,55.622 257.600 C 56.013 257.600,56.393 257.755,56.467 257.944 C 56.599 258.286,62.330 260.634,65.400 261.605 C 66.280 261.883,67.360 262.253,67.800 262.427 C 71.910 264.049,74.418 264.949,76.703 265.623 C 80.274 266.676,82.616 267.426,84.784 268.209 C 86.765 268.925,89.864 269.805,93.200 270.599 C 94.410 270.887,97.020 271.597,99.000 272.177 C 103.421 273.472,104.738 273.808,107.800 274.420 C 109.120 274.684,112.360 275.391,115.000 275.992 C 121.222 277.407,125.478 278.251,129.200 278.806 C 130.850 279.052,133.730 279.504,135.600 279.811 C 143.577 281.120,146.872 281.617,151.400 282.196 C 154.040 282.534,156.591 282.808,157.069 282.805 C 157.703 282.801,158.438 283.551,159.783 285.574 C 168.486 298.665,185.365 307.418,201.800 307.363 C 204.440 307.354,207.590 307.122,208.800 306.848 C 210.010 306.574,212.260 306.070,213.800 305.728 C 222.898 303.706,233.292 297.529,239.200 290.632 C 242.729 286.511,243.600 285.400,243.600 285.013 C 243.600 283.806,245.932 282.060,247.848 281.834 C 250.635 281.505,257.621 280.468,261.600 279.794 C 263.470 279.477,266.350 279.017,268.000 278.772 C 271.228 278.293,275.553 277.464,279.400 276.588 C 280.720 276.287,283.150 275.745,284.800 275.383 C 286.450 275.021,288.353 274.562,289.028 274.363 C 289.704 274.163,290.584 274.000,290.984 274.000 C 291.384 274.000,293.621 273.461,295.955 272.802 C 300.459 271.531,301.583 271.220,305.400 270.191 C 310.404 268.842,311.047 268.651,312.800 267.991 C 313.790 267.618,315.230 267.127,316.000 266.899 C 321.028 265.413,325.860 263.837,326.206 263.571 C 326.429 263.399,328.319 262.704,330.406 262.027 C 332.493 261.350,334.513 260.616,334.895 260.398 C 335.277 260.179,335.769 260.000,335.988 260.000 C 336.208 260.000,337.502 259.460,338.865 258.800 C 340.227 258.140,341.540 257.600,341.783 257.600 C 342.253 257.600,346.909 255.673,351.200 253.703 C 352.630 253.047,354.234 252.374,354.764 252.207 C 355.295 252.041,357.095 251.224,358.764 250.391 C 360.434 249.558,362.880 248.377,364.200 247.765 C 365.520 247.154,367.411 246.177,368.403 245.595 C 370.331 244.462,372.400 243.788,372.400 244.292 C 372.400 244.462,371.953 246.040,371.406 247.800 C 370.859 249.560,370.409 251.394,370.406 251.876 C 370.403 252.358,370.220 252.864,370.000 253.000 C 369.780 253.136,369.600 253.593,369.600 254.016 C 369.600 254.439,368.790 256.833,367.800 259.336 C 366.810 261.839,366.000 264.171,366.000 264.520 C 366.000 264.868,365.840 265.252,365.644 265.373 C 365.449 265.494,365.173 266.051,365.033 266.612 C 364.892 267.173,364.133 269.020,363.346 270.716 C 362.559 272.412,361.648 274.430,361.320 275.200 C 359.265 280.030,352.506 292.630,349.734 296.800 C 349.075 297.790,348.191 299.174,347.768 299.876 C 346.240 302.415,342.208 308.223,341.296 309.200 C 340.783 309.750,339.980 310.830,339.511 311.600 C 339.042 312.370,337.925 313.833,337.029 314.852 C 336.133 315.871,334.320 318.008,333.000 319.602 C 329.592 323.717,317.158 336.170,313.621 339.009 C 311.983 340.324,309.929 342.075,309.057 342.900 C 308.186 343.725,307.332 344.400,307.161 344.400 C 306.989 344.400,306.063 345.080,305.103 345.910 C 303.135 347.614,297.450 351.544,294.126 353.500 C 292.910 354.214,291.234 355.339,290.401 356.000 C 289.567 356.660,288.700 357.200,288.475 357.200 C 288.249 357.200,286.447 358.190,284.470 359.400 C 282.493 360.610,280.625 361.600,280.318 361.600 C 280.011 361.600,279.589 361.757,279.380 361.949 C 278.741 362.536,271.989 365.831,268.628 367.195 C 266.884 367.903,265.174 368.623,264.828 368.795 C 263.294 369.556,262.039 370.048,259.800 370.764 C 258.480 371.187,255.600 372.169,253.400 372.948 C 250.023 374.144,240.992 376.652,235.000 378.059 C 212.438 383.356,184.423 383.359,161.400 378.069 C 156.931 377.042,146.733 374.266,144.800 373.550 C 143.590 373.102,140.800 372.110,138.600 371.345 C 136.400 370.581,133.880 369.626,133.000 369.224 C 132.120 368.821,129.330 367.634,126.800 366.585 C 124.270 365.536,121.930 364.454,121.600 364.181 C 121.270 363.908,119.380 362.921,117.400 361.986 C 115.420 361.052,113.530 360.059,113.200 359.779 C 112.870 359.499,111.610 358.758,110.400 358.133 C 109.190 357.507,106.940 356.166,105.400 355.152 C 103.860 354.138,102.135 353.059,101.566 352.754 C 100.998 352.449,99.661 351.570,98.595 350.800 C 93.063 346.803,88.039 343.026,86.736 341.883 C 85.931 341.178,83.900 339.430,82.222 338.000 C 75.366 332.156,66.066 322.494,59.931 314.841 C 56.813 310.951,50.126 301.618,48.195 298.462 C 44.181 291.899,40.503 285.357,39.165 282.400 C 38.717 281.410,37.561 278.980,36.596 277.000 C 35.630 275.020,34.283 271.899,33.602 270.065 C 32.920 268.231,32.212 266.431,32.028 266.065 C 31.281 264.581,30.774 263.136,28.989 257.400 C 27.962 254.100,26.977 251.040,26.800 250.600 C 26.217 249.154,25.205 244.316,25.414 243.977 C 25.527 243.795,26.740 244.259,28.109 245.008 C 29.479 245.758,31.770 246.943,33.200 247.643 " stroke="none" fill="#7c7c7c" fill-rule="evenodd"></path></g></svg>